# xmcd
#
# Track frame offsets: 
#        150
#        14169
#        26713
#        41235
#        57996
#        79605
#        93885
#        109017
#        126541
#        141346
#
# Disc length: 2084 seconds
#
# Revision: 0
# Processed by: cddbd v1.5.2PL0 Copyright (c) Steve Scherf et al.
# Submitted via: ExactAudioCopy v0.95b4
#
DISCID=8d08220a
DTITLE=Mended Heart - I Saw The Light
DYEAR=2006
DGENRE=Country
TTITLE0=Back In The Saddle
TTITLE1=Home In San Antone
TTITLE2=Preacher And The Bear
TTITLE3=Ghost Riders In The Sky
TTITLE4=I Saw The Light
TTITLE5=God On The Mountain
TTITLE6=I Met The Master
TTITLE7=Mexico
TTITLE8=Thank  God For Kids
TTITLE9=Lifes Railway To Heaven
EXTD=
EXTT0=
EXTT1=
EXTT2=
EXTT3=
EXTT4=
EXTT5=
EXTT6=
EXTT7=
EXTT8=
EXTT9=
PLAYORDER=
